<svg xmlns="http://www.w3.org/2000/svg" xmlns:xlink="http://www.w3.org/1999/xlink" id="processonSvg1000" viewBox="150.5 77.0 700.5 842.0" width="700.5" height="842.0"><defs id="ProcessOnDefs1001"><marker id="ProcessOnMarker1019" markerUnits="userSpaceOnUse" orient="auto" markerWidth="16.23606797749979" markerHeight="10.550836550532098" viewBox="-1.0 -1.3763819204711736 16.23606797749979 10.550836550532098" refX="-1.0" refY="3.8990363547948754"><path id="ProcessOnPath1020" d="M12.0 3.8990363547948754L0.0 7.798072709589751V0.0Z" stroke="#323232" stroke-width="2.0" fill="#323232" transform="matrix(1.0,0.0,0.0,1.0,0.0,0.0)"/></marker><marker id="ProcessOnMarker1023" markerUnits="userSpaceOnUse" orient="auto" markerWidth="16.23606797749979" markerHeight="10.550836550532098" viewBox="-1.0 -1.3763819204711736 16.23606797749979 10.550836550532098" refX="-1.0" refY="3.8990363547948754"><path id="ProcessOnPath1024" d="M12.0 3.8990363547948754L0.0 7.798072709589751V0.0Z" stroke="#323232" stroke-width="2.0" fill="#323232" transform="matrix(1.0,0.0,0.0,1.0,0.0,0.0)"/></marker><marker id="ProcessOnMarker1077" markerUnits="userSpaceOnUse" orient="auto" markerWidth="16.23606797749979" markerHeight="10.550836550532098" viewBox="-1.0 -1.3763819204711736 16.23606797749979 10.550836550532098" refX="-1.0" refY="3.8990363547948754"><path id="ProcessOnPath1078" d="M12.0 3.8990363547948754L0.0 7.798072709589751V0.0Z" stroke="#323232" stroke-width="2.0" fill="#323232" transform="matrix(1.0,0.0,0.0,1.0,0.0,0.0)"/></marker><marker id="ProcessOnMarker1095" markerUnits="userSpaceOnUse" orient="auto" markerWidth="16.23606797749979" markerHeight="10.550836550532098" viewBox="-1.0 -1.3763819204711736 16.23606797749979 10.550836550532098" refX="-1.0" refY="3.8990363547948754"><path id="ProcessOnPath1096" d="M12.0 3.8990363547948754L0.0 7.798072709589751V0.0Z" stroke="#323232" stroke-width="2.0" fill="#323232" transform="matrix(1.0,0.0,0.0,1.0,0.0,0.0)"/></marker><marker id="ProcessOnMarker1129" markerUnits="userSpaceOnUse" orient="auto" markerWidth="16.23606797749979" markerHeight="10.550836550532098" viewBox="-1.0 -1.3763819204711736 16.23606797749979 10.550836550532098" refX="-1.0" refY="3.8990363547948754"><path id="ProcessOnPath1130" d="M12.0 3.8990363547948754L0.0 7.798072709589751V0.0Z" stroke="#323232" stroke-width="2.0" fill="#323232" transform="matrix(1.0,0.0,0.0,1.0,0.0,0.0)"/></marker><marker id="ProcessOnMarker1133" markerUnits="userSpaceOnUse" orient="auto" markerWidth="16.23606797749979" markerHeight="10.550836550532098" viewBox="-1.0 -1.3763819204711736 16.23606797749979 10.550836550532098" refX="-1.0" refY="3.8990363547948754"><path id="ProcessOnPath1134" d="M12.0 3.8990363547948754L0.0 7.798072709589751V0.0Z" stroke="#323232" stroke-width="2.0" fill="#323232" transform="matrix(1.0,0.0,0.0,1.0,0.0,0.0)"/></marker></defs><g id="ProcessOnG1002"><path id="ProcessOnPath1003" d="M150.5 77.0H851.0V919.0H150.5V77.0Z" fill="none"/><g id="ProcessOnG1004"><g id="ProcessOnG1005" transform="matrix(1.0,0.0,0.0,1.0,356.0,153.0)" opacity="1.0"><path id="ProcessOnPath1006" d="M0.0 4.0Q0.0 0.0 4.0 0.0L274.0 0.0Q278.0 0.0 278.0 4.0L278.0 46.0Q278.0 50.0 274.0 50.0L4.0 50.0Q0.0 50.0 0.0 46.0Z" stroke="#323232" stroke-width="2.0" stroke-dasharray="none" opacity="1.0" fill="#e6ffcc"/><g id="ProcessOnG1007" transform="matrix(1.0,0.0,0.0,1.0,10.0,13.75)"><text id="ProcessOnText1008" fill="#000000" font-size="18" x="128.0" y="18.45" font-family="Arial" font-weight="normal" font-style="normal" text-decoration="none" family="Arial" text-anchor="middle" size="18">Genome seqenced Short reads</text></g></g><g id="ProcessOnG1009" transform="matrix(1.0,0.0,0.0,1.0,356.0,274.0)" opacity="1.0"><path id="ProcessOnPath1010" d="M0.0 4.0Q0.0 0.0 4.0 0.0L274.0 0.0Q278.0 0.0 278.0 4.0L278.0 46.0Q278.0 50.0 274.0 50.0L4.0 50.0Q0.0 50.0 0.0 46.0Z" stroke="#323232" stroke-width="2.0" stroke-dasharray="none" opacity="1.0" fill="#e6ffcc"/><g id="ProcessOnG1011" transform="matrix(1.0,0.0,0.0,1.0,10.0,13.75)"><text id="ProcessOnText1012" fill="#000000" font-size="18" x="128.0" y="18.45" font-family="Arial" font-weight="normal" font-style="normal" text-decoration="none" family="Arial" text-anchor="middle" size="18">Alignment to rheMac2</text></g></g><g id="ProcessOnG1013" transform="matrix(1.0,0.0,0.0,1.0,356.0,407.0)" opacity="1.0"><path id="ProcessOnPath1014" d="M0.0 4.0Q0.0 0.0 4.0 0.0L274.0 0.0Q278.0 0.0 278.0 4.0L278.0 46.0Q278.0 50.0 274.0 50.0L4.0 50.0Q0.0 50.0 0.0 46.0Z" stroke="#323232" stroke-width="2.0" stroke-dasharray="none" opacity="1.0" fill="#e6ffcc"/><g id="ProcessOnG1015" transform="matrix(1.0,0.0,0.0,1.0,10.0,13.75)"><text id="ProcessOnText1016" fill="#000000" font-size="18" x="128.0" y="18.45" font-family="Arial" font-weight="normal" font-style="normal" text-decoration="none" family="Arial" text-anchor="middle" size="18">Unique sequence reads</text></g></g><g id="ProcessOnG1017"><path id="ProcessOnPath1018" d="M495.0 203.0L495.0 238.5L495.0 238.5L495.0 258.7639320225002" stroke="#323232" stroke-width="2.0" stroke-dasharray="none" fill="none" marker-end="url(#ProcessOnMarker1019)"/></g><g id="ProcessOnG1021"><path id="ProcessOnPath1022" d="M495.0 324.0L495.0 365.5L495.0 365.5L495.0 391.7639320225002" stroke="#323232" stroke-width="2.0" stroke-dasharray="none" fill="none" marker-end="url(#ProcessOnMarker1023)"/></g><g id="ProcessOnG1025" transform="matrix(1.0,0.0,0.0,1.0,208.0,153.0)" opacity="1.0"><path id="ProcessOnPath1026" d="M0.0 4.0Q0.0 0.0 4.0 0.0L81.0 0.0Q85.0 0.0 85.0 4.0L85.0 46.0Q85.0 50.0 81.0 50.0L4.0 50.0Q0.0 50.0 0.0 46.0Z" stroke="#323232" stroke-width="2.0" stroke-dasharray="10.0 4.0" opacity="1.0" fill="#ffe6cc"/><g id="ProcessOnG1027" transform="matrix(1.0,0.0,0.0,1.0,10.0,13.75)"><text id="ProcessOnText1028" fill="#000000" font-size="18" x="31.5" y="18.45" font-family="Arial" font-weight="normal" font-style="normal" text-decoration="none" family="Arial" text-anchor="middle" size="18">FASTQ</text></g></g><g id="ProcessOnG1029" transform="matrix(1.0,0.0,0.0,1.0,170.5,97.0)" opacity="1.0"><path id="ProcessOnPath1030" d="M0.0 0.0L160.0 0.0L160.0 40.0L0.0 40.0Z" stroke="none" stroke-width="0.0" stroke-dasharray="none" opacity="1.0" fill="none"/><g id="ProcessOnG1031" transform="matrix(1.0,0.0,0.0,1.0,0.0,7.5)"><text id="ProcessOnText1032" fill="#000000" font-size="20" x="79.0" y="20.5" font-family="Arial" font-weight="normal" font-style="normal" text-decoration="none" family="Arial" text-anchor="middle" size="20">File Format</text></g></g><g id="ProcessOnG1033" transform="matrix(1.0,0.0,0.0,1.0,420.0,97.0)" opacity="1.0"><path id="ProcessOnPath1034" d="M0.0 0.0L160.0 0.0L160.0 40.0L0.0 40.0Z" stroke="none" stroke-width="0.0" stroke-dasharray="none" opacity="1.0" fill="none"/><g id="ProcessOnG1035" transform="matrix(1.0,0.0,0.0,1.0,0.0,7.5)"><text id="ProcessOnText1036" fill="#000000" font-size="20" x="79.0" y="20.5" font-family="Arial" font-weight="normal" font-style="normal" text-decoration="none" family="Arial" text-anchor="middle" size="20">Processing flow</text></g></g><g id="ProcessOnG1037" transform="matrix(1.0,0.0,0.0,1.0,671.0,97.0)" opacity="1.0"><path id="ProcessOnPath1038" d="M0.0 0.0L160.0 0.0L160.0 40.0L0.0 40.0Z" stroke="none" stroke-width="0.0" stroke-dasharray="none" opacity="1.0" fill="none"/><g id="ProcessOnG1039" transform="matrix(1.0,0.0,0.0,1.0,0.0,7.5)"><text id="ProcessOnText1040" fill="#000000" font-size="20" x="79.0" y="20.5" font-family="Arial" font-weight="normal" font-style="normal" text-decoration="none" family="Arial" text-anchor="middle" size="20">Tools</text></g></g><g id="ProcessOnG1041" transform="matrix(1.0,0.0,0.0,1.0,708.5,210.0)" opacity="1.0"><path id="ProcessOnPath1042" d="M0.0 4.0Q0.0 0.0 4.0 0.0L103.5 0.0Q107.5 0.0 107.5 4.0L107.5 46.0Q107.5 50.0 103.5 50.0L4.0 50.0Q0.0 50.0 0.0 46.0Z" stroke="#323232" stroke-width="2.0" stroke-dasharray="none" opacity="1.0" fill="#cce5ff"/><g id="ProcessOnG1043" transform="matrix(1.0,0.0,0.0,1.0,10.0,13.75)"><text id="ProcessOnText1044" fill="#000000" font-size="18" x="42.75" y="18.45" font-family="Arial" font-weight="normal" font-style="normal" text-decoration="none" family="Arial" text-anchor="middle" size="18">Bowtie2</text></g></g><g id="ProcessOnG1045"><path id="ProcessOnPath1046" d="M708.5 235.0L602.25 235.0L602.25 235.0L496.0 235.0" stroke="#323232" stroke-width="2.0" stroke-dasharray="none" fill="none"/><g id="ProcessOnG1047" transform="matrix(1.0,0.0,0.0,1.0,602.25,225.0)"><path id="ProcessOnPath1048" d="M0 0H61.0V20.0H0Z" fill="#fff" transform="matrix(1.0,0.0,0.0,1.0,-30.5,0.0)"/><text id="ProcessOnText1049" fill="#000000" font-size="16" x="0.0" y="16.4" font-family="Arial" font-weight="normal" font-style="normal" text-decoration="none" family="Arial" text-anchor="middle" size="16">Mapping</text></g></g><g id="ProcessOnG1050" transform="matrix(1.0,0.0,0.0,1.0,208.0,274.0)" opacity="1.0"><path id="ProcessOnPath1051" d="M0.0 4.0Q0.0 0.0 4.0 0.0L81.0 0.0Q85.0 0.0 85.0 4.0L85.0 46.0Q85.0 50.0 81.0 50.0L4.0 50.0Q0.0 50.0 0.0 46.0Z" stroke="#323232" stroke-width="2.0" stroke-dasharray="10.0 4.0" opacity="1.0" fill="#ffe6cc"/><g id="ProcessOnG1052" transform="matrix(1.0,0.0,0.0,1.0,10.0,13.75)"><text id="ProcessOnText1053" fill="#000000" font-size="18" x="31.5" y="18.45" font-family="Arial" font-weight="normal" font-style="normal" text-decoration="none" family="Arial" text-anchor="middle" size="18">BAM</text></g></g><g id="ProcessOnG1054" transform="matrix(1.0,0.0,0.0,1.0,208.0,407.0)" opacity="1.0"><path id="ProcessOnPath1055" d="M0.0 4.0Q0.0 0.0 4.0 0.0L81.0 0.0Q85.0 0.0 85.0 4.0L85.0 46.0Q85.0 50.0 81.0 50.0L4.0 50.0Q0.0 50.0 0.0 46.0Z" stroke="#323232" stroke-width="2.0" stroke-dasharray="10.0 4.0" opacity="1.0" fill="#ffe6cc"/><g id="ProcessOnG1056" transform="matrix(1.0,0.0,0.0,1.0,10.0,13.75)"><text id="ProcessOnText1057" fill="#000000" font-size="18" x="31.5" y="18.45" font-family="Arial" font-weight="normal" font-style="normal" text-decoration="none" family="Arial" text-anchor="middle" size="18">BAM</text></g></g><g id="ProcessOnG1058" transform="matrix(1.0,0.0,0.0,1.0,708.5,335.0)" opacity="1.0"><path id="ProcessOnPath1059" d="M0.0 4.0Q0.0 0.0 4.0 0.0L103.5 0.0Q107.5 0.0 107.5 4.0L107.5 46.0Q107.5 50.0 103.5 50.0L4.0 50.0Q0.0 50.0 0.0 46.0Z" stroke="#323232" stroke-width="2.0" stroke-dasharray="none" opacity="1.0" fill="#cce5ff"/><g id="ProcessOnG1060" transform="matrix(1.0,0.0,0.0,1.0,10.0,13.75)"><text id="ProcessOnText1061" fill="#000000" font-size="18" x="42.75" y="18.45" font-family="Arial" font-weight="normal" font-style="normal" text-decoration="none" family="Arial" text-anchor="middle" size="18">Picard</text></g></g><g id="ProcessOnG1062"><path id="ProcessOnPath1063" d="M708.5 360.0L601.75 360.0L601.75 360.0L495.0 360.0" stroke="#323232" stroke-width="2.0" stroke-dasharray="none" fill="none"/><g id="ProcessOnG1064" transform="matrix(1.0,0.0,0.0,1.0,601.75,350.0)"><path id="ProcessOnPath1065" d="M0 0H148.0V20.0H0Z" fill="#fff" transform="matrix(1.0,0.0,0.0,1.0,-74.0,0.0)"/><text id="ProcessOnText1066" fill="#000000" font-size="16" x="0.0" y="16.4" font-family="Arial" font-weight="normal" font-style="normal" text-decoration="none" family="Arial" text-anchor="middle" size="16">Mark PCR duplicates</text></g></g><g id="ProcessOnG1067" transform="matrix(1.0,0.0,0.0,1.0,356.0,526.0)" opacity="1.0"><path id="ProcessOnPath1068" d="M0.0 4.0Q0.0 0.0 4.0 0.0L274.0 0.0Q278.0 0.0 278.0 4.0L278.0 46.0Q278.0 50.0 274.0 50.0L4.0 50.0Q0.0 50.0 0.0 46.0Z" stroke="#323232" stroke-width="2.0" stroke-dasharray="none" opacity="1.0" fill="#e6ffcc"/><g id="ProcessOnG1069" transform="matrix(1.0,0.0,0.0,1.0,10.0,13.75)"><text id="ProcessOnText1070" fill="#000000" font-size="18" x="128.0" y="18.45" font-family="Arial" font-weight="normal" font-style="normal" text-decoration="none" family="Arial" text-anchor="middle" size="18">Locally realigned reads</text></g></g><g id="ProcessOnG1071" transform="matrix(1.0,0.0,0.0,1.0,708.5,576.0)" opacity="1.0"><path id="ProcessOnPath1072" d="M0.0 4.0Q0.0 0.0 4.0 0.0L103.5 0.0Q107.5 0.0 107.5 4.0L107.5 49.0Q107.5 53.0 103.5 53.0L4.0 53.0Q0.0 53.0 0.0 49.0Z" stroke="#323232" stroke-width="2.0" stroke-dasharray="none" opacity="1.0" fill="#cce5ff"/><g id="ProcessOnG1073" transform="matrix(1.0,0.0,0.0,1.0,10.0,15.25)"><text id="ProcessOnText1074" fill="#000000" font-size="18" x="42.75" y="18.45" font-family="Arial" font-weight="normal" font-style="normal" text-decoration="none" family="Arial" text-anchor="middle" size="18">GATK</text></g></g><g id="ProcessOnG1075"><path id="ProcessOnPath1076" d="M495.0 457.0L495.0 491.5L495.0 491.5L495.0 510.7639320225002" stroke="#323232" stroke-width="2.0" stroke-dasharray="none" fill="none" marker-end="url(#ProcessOnMarker1077)"/></g><g id="ProcessOnG1079" transform="matrix(1.0,0.0,0.0,1.0,208.0,526.0)" opacity="1.0"><path id="ProcessOnPath1080" d="M0.0 4.0Q0.0 0.0 4.0 0.0L81.0 0.0Q85.0 0.0 85.0 4.0L85.0 46.0Q85.0 50.0 81.0 50.0L4.0 50.0Q0.0 50.0 0.0 46.0Z" stroke="#323232" stroke-width="2.0" stroke-dasharray="10.0 4.0" opacity="1.0" fill="#ffe6cc"/><g id="ProcessOnG1081" transform="matrix(1.0,0.0,0.0,1.0,10.0,13.75)"><text id="ProcessOnText1082" fill="#000000" font-size="18" x="31.5" y="18.45" font-family="Arial" font-weight="normal" font-style="normal" text-decoration="none" family="Arial" text-anchor="middle" size="18">BAM</text></g></g><g id="ProcessOnG1083"><path id="ProcessOnPath1084" d="M762.25 576.0L762.25 491.0L495.0 491.0" stroke="#323232" stroke-width="2.0" stroke-dasharray="none" fill="none"/><g id="ProcessOnG1085" transform="matrix(1.0,0.0,0.0,1.0,671.125,481.0)"><path id="ProcessOnPath1086" d="M0 0H123.0V20.0H0Z" fill="#fff" transform="matrix(1.0,0.0,0.0,1.0,-61.5,0.0)"/><text id="ProcessOnText1087" fill="#000000" font-size="16" x="0.0" y="16.4" font-family="Arial" font-weight="normal" font-style="normal" text-decoration="none" family="Arial" text-anchor="middle" size="16">Local realignment</text></g></g><g id="ProcessOnG1088" transform="matrix(1.0,0.0,0.0,1.0,356.0,636.0)" opacity="1.0"><path id="ProcessOnPath1089" d="M0.0 4.0Q0.0 0.0 4.0 0.0L274.0 0.0Q278.0 0.0 278.0 4.0L278.0 46.0Q278.0 50.0 274.0 50.0L4.0 50.0Q0.0 50.0 0.0 46.0Z" stroke="#323232" stroke-width="2.0" stroke-dasharray="none" opacity="1.0" fill="#e6ffcc"/><g id="ProcessOnG1090" transform="matrix(1.0,0.0,0.0,1.0,10.0,2.5)"><text id="ProcessOnText1091" fill="#000000" font-size="18" x="128.0" y="18.45" font-family="Arial" font-weight="normal" font-style="normal" text-decoration="none" family="Arial" text-anchor="middle" size="18">Recalibrated base quality </text><text id="ProcessOnText1092" fill="#000000" font-size="18" x="128.0" y="40.95" font-family="Arial" font-weight="normal" font-style="normal" text-decoration="none" family="Arial" text-anchor="middle" size="18">scores reads</text></g></g><g id="ProcessOnG1093"><path id="ProcessOnPath1094" d="M495.0 576.0L495.0 606.0L495.0 606.0L495.0 620.7639320225002" stroke="#323232" stroke-width="2.0" stroke-dasharray="none" fill="none" marker-end="url(#ProcessOnMarker1095)"/></g><g id="ProcessOnG1097" transform="matrix(1.0,0.0,0.0,1.0,208.0,636.0)" opacity="1.0"><path id="ProcessOnPath1098" d="M0.0 4.0Q0.0 0.0 4.0 0.0L81.0 0.0Q85.0 0.0 85.0 4.0L85.0 46.0Q85.0 50.0 81.0 50.0L4.0 50.0Q0.0 50.0 0.0 46.0Z" stroke="#323232" stroke-width="2.0" stroke-dasharray="10.0 4.0" opacity="1.0" fill="#ffe6cc"/><g id="ProcessOnG1099" transform="matrix(1.0,0.0,0.0,1.0,10.0,13.75)"><text id="ProcessOnText1100" fill="#000000" font-size="18" x="31.5" y="18.45" font-family="Arial" font-weight="normal" font-style="normal" text-decoration="none" family="Arial" text-anchor="middle" size="18">BAM</text></g></g><g id="ProcessOnG1101" transform="matrix(1.0,0.0,0.0,1.0,356.0,749.0)" opacity="1.0"><path id="ProcessOnPath1102" d="M0.0 4.0Q0.0 0.0 4.0 0.0L274.0 0.0Q278.0 0.0 278.0 4.0L278.0 46.0Q278.0 50.0 274.0 50.0L4.0 50.0Q0.0 50.0 0.0 46.0Z" stroke="#323232" stroke-width="2.0" stroke-dasharray="none" opacity="1.0" fill="#e6ffcc"/><g id="ProcessOnG1103" transform="matrix(1.0,0.0,0.0,1.0,10.0,13.75)"><text id="ProcessOnText1104" fill="#000000" font-size="18" x="128.0" y="18.45" font-family="Arial" font-weight="normal" font-style="normal" text-decoration="none" family="Arial" text-anchor="middle" size="18">Raw SNPs</text></g></g><g id="ProcessOnG1105" transform="matrix(1.0,0.0,0.0,1.0,208.0,749.0)" opacity="1.0"><path id="ProcessOnPath1106" d="M0.0 4.0Q0.0 0.0 4.0 0.0L81.0 0.0Q85.0 0.0 85.0 4.0L85.0 46.0Q85.0 50.0 81.0 50.0L4.0 50.0Q0.0 50.0 0.0 46.0Z" stroke="#323232" stroke-width="2.0" stroke-dasharray="10.0 4.0" opacity="1.0" fill="#ffe6cc"/><g id="ProcessOnG1107" transform="matrix(1.0,0.0,0.0,1.0,10.0,13.75)"><text id="ProcessOnText1108" fill="#000000" font-size="18" x="31.5" y="18.45" font-family="Arial" font-weight="normal" font-style="normal" text-decoration="none" family="Arial" text-anchor="middle" size="18">VCF</text></g></g><g id="ProcessOnG1109" transform="matrix(1.0,0.0,0.0,1.0,356.0,849.0)" opacity="1.0"><path id="ProcessOnPath1110" d="M0.0 4.0Q0.0 0.0 4.0 0.0L274.0 0.0Q278.0 0.0 278.0 4.0L278.0 46.0Q278.0 50.0 274.0 50.0L4.0 50.0Q0.0 50.0 0.0 46.0Z" stroke="#323232" stroke-width="2.0" stroke-dasharray="none" opacity="1.0" fill="#e6ffcc"/><g id="ProcessOnG1111" transform="matrix(1.0,0.0,0.0,1.0,10.0,13.75)"><text id="ProcessOnText1112" fill="#000000" font-size="18" x="128.0" y="18.45" font-family="Arial" font-weight="normal" font-style="normal" text-decoration="none" family="Arial" text-anchor="middle" size="18">Final genotype calls</text></g></g><g id="ProcessOnG1113" transform="matrix(1.0,0.0,0.0,1.0,208.0,849.0)" opacity="1.0"><path id="ProcessOnPath1114" d="M0.0 4.0Q0.0 0.0 4.0 0.0L81.0 0.0Q85.0 0.0 85.0 4.0L85.0 46.0Q85.0 50.0 81.0 50.0L4.0 50.0Q0.0 50.0 0.0 46.0Z" stroke="#323232" stroke-width="2.0" stroke-dasharray="10.0 4.0" opacity="1.0" fill="#ffe6cc"/><g id="ProcessOnG1115" transform="matrix(1.0,0.0,0.0,1.0,10.0,13.75)"><text id="ProcessOnText1116" fill="#000000" font-size="18" x="31.5" y="18.45" font-family="Arial" font-weight="normal" font-style="normal" text-decoration="none" family="Arial" text-anchor="middle" size="18">VCF</text></g></g><g id="ProcessOnG1117"><path id="ProcessOnPath1118" d="M708.5 602.5L602.25 602.5L602.25 604.0L496.0 604.0" stroke="#323232" stroke-width="2.0" stroke-dasharray="none" fill="none"/><g id="ProcessOnG1119" transform="matrix(1.0,0.0,0.0,1.0,602.25,593.25)"><path id="ProcessOnPath1120" d="M0 0H175.0V20.0H0Z" fill="#fff" transform="matrix(1.0,0.0,0.0,1.0,-87.5,0.0)"/><text id="ProcessOnText1121" fill="#000000" font-size="16" x="0.0" y="16.4" font-family="Arial" font-weight="normal" font-style="normal" text-decoration="none" family="Arial" text-anchor="middle" size="16">Base quality recalibration</text></g></g><g id="ProcessOnG1122"><path id="ProcessOnPath1123" d="M762.25 629.0L762.25 719.0L494.0 719.0" stroke="#323232" stroke-width="2.0" stroke-dasharray="none" fill="none"/><g id="ProcessOnG1124" transform="matrix(1.0,0.0,0.0,1.0,673.125,709.0)"><path id="ProcessOnPath1125" d="M0 0H81.0V20.0H0Z" fill="#fff" transform="matrix(1.0,0.0,0.0,1.0,-40.5,0.0)"/><text id="ProcessOnText1126" fill="#000000" font-size="16" x="0.0" y="16.4" font-family="Arial" font-weight="normal" font-style="normal" text-decoration="none" family="Arial" text-anchor="middle" size="16">SNP calling</text></g></g><g id="ProcessOnG1127"><path id="ProcessOnPath1128" d="M495.0 686.0L495.0 717.5L495.0 717.5L495.0 733.7639320225002" stroke="#323232" stroke-width="2.0" stroke-dasharray="none" fill="none" marker-end="url(#ProcessOnMarker1129)"/></g><g id="ProcessOnG1131"><path id="ProcessOnPath1132" d="M495.0 799.0L495.0 824.0L495.0 824.0L495.0 833.7639320225002" stroke="#323232" stroke-width="2.0" stroke-dasharray="none" fill="none" marker-end="url(#ProcessOnMarker1133)"/></g><g id="ProcessOnG1135" transform="matrix(1.0,0.0,0.0,1.0,522.0,805.0)" opacity="1.0"><path id="ProcessOnPath1136" d="M0.0 0.0L160.0 0.0L160.0 40.0L0.0 40.0Z" stroke="none" stroke-width="0.0" stroke-dasharray="none" opacity="1.0" fill="none"/><g id="ProcessOnG1137" transform="matrix(1.0,0.0,0.0,1.0,0.0,10.0)"><text id="ProcessOnText1138" fill="#000000" font-size="16" x="79.0" y="16.4" font-family="Arial" font-weight="normal" font-style="normal" text-decoration="none" family="Arial" text-anchor="middle" size="16">Add filters into vcf files</text></g></g></g></g></svg>